<svg data-v-423bf9ae="" xmlns="http://www.w3.org/2000/svg" viewBox="0 0 146.82926167388447 60" class="font"><!----><!----><!----><g data-v-423bf9ae="" id="24c090ee-1637-4b8e-9026-c39a5ea2d2f1" fill="black" transform="matrix(4.065040587370328,0,0,4.065040587370328,-3.048782294926042,-10.934958935792508)"><path d="M4.85 13.94L3.10 13.94L3.10 13.94Q2.90 14.03 2.66 14.17L2.66 14.17L2.66 14.17Q2.43 14.32 2.23 14.51L2.23 14.51L2.23 14.51Q2.03 14.70 1.90 14.92L1.90 14.92L1.90 14.92Q1.77 15.14 1.77 15.37L1.77 15.37L1.77 15.37Q1.77 15.61 1.92 15.83L1.92 15.83L1.92 15.83Q2.06 16.04 2.34 16.20L2.34 16.20L2.34 16.20Q2.62 16.37 3.02 16.46L3.02 16.46L3.02 16.46Q3.42 16.55 3.92 16.55L3.92 16.55L3.92 16.55Q4.49 16.55 4.96 16.43L4.96 16.43L4.96 16.43Q5.43 16.31 5.77 16.10L5.77 16.10L5.77 16.10Q6.10 15.89 6.29 15.61L6.29 15.61L6.29 15.61Q6.47 15.33 6.47 15.01L6.47 15.01L6.47 15.01Q6.47 14.74 6.34 14.53L6.34 14.53L6.34 14.53Q6.21 14.33 5.98 14.20L5.98 14.20L5.98 14.20Q5.76 14.07 5.47 14.00L5.47 14.00L5.47 14.00Q5.17 13.94 4.85 13.94L4.85 13.94ZM2.19 13.78L2.19 13.78L2.19 13.78Q2.01 13.73 1.84 13.62L1.84 13.62L1.84 13.62Q1.67 13.52 1.54 13.38L1.54 13.38L1.54 13.38Q1.42 13.24 1.34 13.07L1.34 13.07L1.34 13.07Q1.26 12.91 1.26 12.72L1.26 12.72L1.26 12.72Q1.26 12.50 1.37 12.30L1.37 12.30L1.37 12.30Q1.48 12.10 1.65 11.92L1.65 11.92L1.65 11.92Q1.83 11.73 2.05 11.57L2.05 11.57L2.05 11.57Q2.27 11.40 2.50 11.26L2.50 11.26L2.50 11.26Q1.85 10.91 1.47 10.33L1.47 10.33L1.47 10.33Q1.08 9.74 1.08 9.00L1.08 9.00L1.08 9.00Q1.08 8.35 1.37 7.84L1.37 7.84L1.37 7.84Q1.65 7.33 2.10 6.98L2.10 6.98L2.10 6.98Q2.54 6.63 3.08 6.45L3.08 6.45L3.08 6.45Q3.61 6.26 4.09 6.26L4.09 6.26L4.09 6.26Q4.30 6.26 4.51 6.29L4.51 6.29L4.51 6.29Q4.72 6.32 4.92 6.38L4.92 6.38L4.92 6.38Q5.12 6.43 5.29 6.51L5.29 6.51L5.29 6.51Q5.47 6.58 5.60 6.67L5.60 6.67L5.60 6.67Q5.71 6.60 5.89 6.55L5.89 6.55L5.89 6.55Q6.06 6.50 6.24 6.47L6.24 6.47L6.24 6.47Q6.43 6.43 6.60 6.42L6.60 6.42L6.60 6.42Q6.77 6.40 6.89 6.40L6.89 6.40L8.20 6.40L7.95 7.29L6.17 7.29L6.17 7.29Q6.30 7.40 6.42 7.57L6.42 7.57L6.42 7.57Q6.54 7.75 6.63 7.96L6.63 7.96L6.63 7.96Q6.72 8.18 6.77 8.42L6.77 8.42L6.77 8.42Q6.83 8.66 6.83 8.91L6.83 8.91L6.83 8.91Q6.83 9.48 6.56 9.97L6.56 9.97L6.56 9.97Q6.30 10.46 5.87 10.82L5.87 10.82L5.87 10.82Q5.45 11.18 4.92 11.39L4.92 11.39L4.92 11.39Q4.40 11.60 3.87 11.60L3.87 11.60L3.87 11.60Q3.71 11.60 3.54 11.58L3.54 11.58L3.54 11.58Q3.36 11.57 3.17 11.54L3.17 11.54L3.17 11.54Q3.02 11.62 2.87 11.72L2.87 11.72L2.87 11.72Q2.71 11.82 2.59 11.93L2.59 11.93L2.59 11.93Q2.46 12.04 2.38 12.16L2.38 12.16L2.38 12.16Q2.30 12.29 2.30 12.43L2.30 12.43L2.30 12.43Q2.30 12.54 2.35 12.65L2.35 12.65L2.35 12.65Q2.41 12.76 2.51 12.84L2.51 12.84L2.51 12.84Q2.60 12.93 2.75 12.99L2.75 12.99L2.75 12.99Q2.90 13.04 3.08 13.04L3.08 13.04L5.12 13.04L5.12 13.04Q5.64 13.04 6.07 13.18L6.07 13.18L6.07 13.18Q6.50 13.32 6.81 13.56L6.81 13.56L6.81 13.56Q7.11 13.80 7.28 14.13L7.28 14.13L7.28 14.13Q7.44 14.46 7.44 14.83L7.44 14.83L7.44 14.83Q7.44 15.29 7.18 15.76L7.18 15.76L7.18 15.76Q6.91 16.23 6.42 16.60L6.42 16.60L6.42 16.60Q5.93 16.98 5.24 17.21L5.24 17.21L5.24 17.21Q4.55 17.45 3.70 17.45L3.70 17.45L3.70 17.45Q3.06 17.45 2.52 17.31L2.52 17.31L2.52 17.31Q1.98 17.17 1.59 16.93L1.59 16.93L1.59 16.93Q1.20 16.69 0.97 16.36L0.97 16.36L0.97 16.36Q0.75 16.03 0.75 15.64L0.75 15.64L0.75 15.64Q0.75 15.31 0.91 15.02L0.91 15.02L0.91 15.02Q1.06 14.73 1.28 14.50L1.28 14.50L1.28 14.50Q1.50 14.26 1.75 14.08L1.75 14.08L1.75 14.08Q2.00 13.90 2.19 13.78ZM2.05 8.89L2.05 8.89L2.05 8.89Q2.05 9.28 2.20 9.61L2.20 9.61L2.20 9.61Q2.35 9.95 2.61 10.21L2.61 10.21L2.61 10.21Q2.86 10.46 3.21 10.61L3.21 10.61L3.21 10.61Q3.56 10.75 3.96 10.75L3.96 10.75L3.96 10.75Q4.33 10.75 4.67 10.62L4.67 10.62L4.67 10.62Q5.02 10.49 5.28 10.25L5.28 10.25L5.28 10.25Q5.54 10.01 5.70 9.68L5.70 9.68L5.70 9.68Q5.86 9.35 5.86 8.95L5.86 8.95L5.86 8.95Q5.86 8.56 5.71 8.22L5.71 8.22L5.71 8.22Q5.56 7.89 5.30 7.64L5.30 7.64L5.30 7.64Q5.04 7.40 4.70 7.25L4.70 7.25L4.70 7.25Q4.35 7.11 3.95 7.11L3.95 7.11L3.95 7.11Q3.58 7.11 3.23 7.24L3.23 7.24L3.23 7.24Q2.89 7.36 2.63 7.59L2.63 7.59L2.63 7.59Q2.37 7.83 2.21 8.16L2.21 8.16L2.21 8.16Q2.05 8.48 2.05 8.89ZM9.71 13.64L9.71 6.40L10.49 6.40L10.64 8.50L10.64 8.50Q10.88 8.01 11.15 7.60L11.15 7.60L11.15 7.60Q11.42 7.19 11.72 6.89L11.72 6.89L11.72 6.89Q12.02 6.60 12.38 6.43L12.38 6.43L12.38 6.43Q12.73 6.26 13.15 6.26L13.15 6.26L13.15 6.26Q13.34 6.26 13.48 6.30L13.48 6.30L13.48 6.30Q13.63 6.34 13.81 6.43L13.81 6.43L13.71 7.32L13.71 7.32Q13.62 7.29 13.47 7.27L13.47 7.27L13.47 7.27Q13.32 7.26 13.19 7.26L13.19 7.26L13.19 7.26Q12.87 7.26 12.56 7.38L12.56 7.38L12.56 7.38Q12.25 7.49 11.94 7.76L11.94 7.76L11.94 7.76Q11.63 8.03 11.32 8.46L11.32 8.46L11.32 8.46Q11.01 8.89 10.69 9.53L10.69 9.53L10.69 13.64L9.71 13.64ZM20.49 12.43L20.49 13.10L20.49 13.10Q20.26 13.25 19.96 13.38L19.96 13.38L19.96 13.38Q19.65 13.50 19.31 13.59L19.31 13.59L19.31 13.59Q18.98 13.69 18.63 13.73L18.63 13.73L18.63 13.73Q18.28 13.78 17.97 13.78L17.97 13.78L17.97 13.78Q17.32 13.78 16.71 13.55L16.71 13.55L16.71 13.55Q16.10 13.32 15.62 12.87L15.62 12.87L15.62 12.87Q15.15 12.41 14.86 11.72L14.86 11.72L14.86 11.72Q14.57 11.04 14.57 10.12L14.57 10.12L14.57 10.12Q14.57 9.22 14.85 8.50L14.85 8.50L14.85 8.50Q15.13 7.79 15.60 7.29L15.60 7.29L15.60 7.29Q16.07 6.79 16.67 6.53L16.67 6.53L16.67 6.53Q17.27 6.26 17.91 6.26L17.91 6.26L17.91 6.26Q18.48 6.26 19.00 6.47L19.00 6.47L19.00 6.47Q19.52 6.69 19.91 7.08L19.91 7.08L19.91 7.08Q20.30 7.47 20.52 8.04L20.52 8.04L20.52 8.04Q20.75 8.60 20.75 9.30L20.75 9.30L20.75 9.30Q20.75 9.45 20.74 9.68L20.74 9.68L20.74 9.68Q20.73 9.92 20.69 10.16L20.69 10.16L15.60 10.16L15.60 10.16Q15.60 10.75 15.80 11.24L15.80 11.24L15.80 11.24Q16.00 11.73 16.37 12.09L16.37 12.09L16.37 12.09Q16.73 12.46 17.27 12.66L17.27 12.66L17.27 12.66Q17.80 12.86 18.47 12.86L18.47 12.86L18.47 12.86Q18.64 12.86 18.88 12.84L18.88 12.84L18.88 12.84Q19.13 12.82 19.40 12.78L19.40 12.78L19.40 12.78Q19.67 12.73 19.96 12.65L19.96 12.65L19.96 12.65Q20.24 12.56 20.49 12.43L20.49 12.43ZM15.60 9.38L19.80 9.38L19.80 9.38Q19.80 8.83 19.63 8.41L19.63 8.41L19.63 8.41Q19.46 8.00 19.17 7.72L19.17 7.72L19.17 7.72Q18.89 7.44 18.53 7.30L18.53 7.30L18.53 7.30Q18.17 7.16 17.78 7.16L17.78 7.16L17.78 7.16Q17.31 7.16 16.91 7.35L16.91 7.35L16.91 7.35Q16.52 7.54 16.23 7.85L16.23 7.85L16.23 7.85Q15.94 8.17 15.78 8.57L15.78 8.57L15.78 8.57Q15.61 8.97 15.60 9.38L15.60 9.38ZM28.33 12.43L28.33 13.10L28.33 13.10Q28.10 13.25 27.80 13.38L27.80 13.38L27.80 13.38Q27.49 13.50 27.16 13.59L27.16 13.59L27.16 13.59Q26.82 13.69 26.47 13.73L26.47 13.73L26.47 13.73Q26.12 13.78 25.81 13.78L25.81 13.78L25.81 13.78Q25.16 13.78 24.55 13.55L24.55 13.55L24.55 13.55Q23.94 13.32 23.46 12.87L23.46 12.87L23.46 12.87Q22.99 12.41 22.70 11.72L22.70 11.72L22.70 11.72Q22.42 11.04 22.42 10.12L22.42 10.12L22.42 10.12Q22.42 9.22 22.70 8.50L22.70 8.50L22.70 8.50Q22.98 7.79 23.44 7.29L23.44 7.29L23.44 7.29Q23.91 6.79 24.51 6.53L24.51 6.53L24.51 6.53Q25.12 6.26 25.75 6.26L25.75 6.26L25.75 6.26Q26.33 6.26 26.84 6.47L26.84 6.47L26.84 6.47Q27.36 6.69 27.75 7.08L27.75 7.08L27.75 7.08Q28.14 7.47 28.37 8.04L28.37 8.04L28.37 8.04Q28.59 8.60 28.59 9.30L28.59 9.30L28.59 9.30Q28.59 9.45 28.58 9.68L28.58 9.68L28.58 9.68Q28.57 9.92 28.53 10.16L28.53 10.16L23.44 10.16L23.44 10.16Q23.44 10.75 23.64 11.24L23.64 11.24L23.64 11.24Q23.84 11.73 24.21 12.09L24.21 12.09L24.21 12.09Q24.58 12.46 25.11 12.66L25.11 12.66L25.11 12.66Q25.64 12.86 26.31 12.86L26.31 12.86L26.31 12.86Q26.48 12.86 26.73 12.84L26.73 12.84L26.73 12.84Q26.97 12.82 27.24 12.78L27.24 12.78L27.24 12.78Q27.51 12.73 27.80 12.65L27.80 12.65L27.80 12.65Q28.08 12.56 28.33 12.43L28.33 12.43ZM23.44 9.38L27.64 9.38L27.64 9.38Q27.64 8.83 27.47 8.41L27.47 8.41L27.47 8.41Q27.30 8.00 27.02 7.72L27.02 7.72L27.02 7.72Q26.74 7.44 26.37 7.30L26.37 7.30L26.37 7.30Q26.01 7.16 25.62 7.16L25.62 7.16L25.62 7.16Q25.15 7.16 24.75 7.35L24.75 7.35L24.75 7.35Q24.36 7.54 24.07 7.85L24.07 7.85L24.07 7.85Q23.78 8.17 23.62 8.57L23.62 8.57L23.62 8.57Q23.45 8.97 23.44 9.38L23.44 9.38ZM35.89 11.61L35.89 7.52L35.89 7.52Q35.31 7.28 34.87 7.22L34.87 7.22L34.87 7.22Q34.43 7.16 34.17 7.16L34.17 7.16L34.17 7.16Q33.50 7.16 32.96 7.37L32.96 7.37L32.96 7.37Q32.42 7.57 32.05 7.96L32.05 7.96L32.05 7.96Q31.68 8.34 31.48 8.87L31.48 8.87L31.48 8.87Q31.28 9.41 31.28 10.05L31.28 10.05L31.28 10.05Q31.28 10.62 31.44 11.13L31.44 11.13L31.44 11.13Q31.59 11.64 31.88 12.02L31.88 12.02L31.88 12.02Q32.17 12.41 32.58 12.63L32.58 12.63L32.58 12.63Q33.00 12.86 33.52 12.86L33.52 12.86L33.52 12.86Q34.14 12.86 34.72 12.53L34.72 12.53L34.72 12.53Q35.31 12.21 35.89 11.61L35.89 11.61ZM35.89 6.48L35.89 2.69L36.87 2.69L36.87 13.64L36.09 13.64L35.94 12.37L35.94 12.37Q35.72 12.58 35.43 12.82L35.43 12.82L35.43 12.82Q35.14 13.07 34.78 13.28L34.78 13.28L34.78 13.28Q34.43 13.49 34.02 13.64L34.02 13.64L34.02 13.64Q33.61 13.78 33.15 13.78L33.15 13.78L33.15 13.78Q32.48 13.78 31.95 13.48L31.95 13.48L31.95 13.48Q31.42 13.19 31.04 12.69L31.04 12.69L31.04 12.69Q30.67 12.20 30.46 11.56L30.46 11.56L30.46 11.56Q30.26 10.92 30.26 10.23L30.26 10.23L30.26 10.23Q30.26 9.36 30.57 8.63L30.57 8.63L30.57 8.63Q30.89 7.90 31.44 7.38L31.44 7.38L31.44 7.38Q31.99 6.85 32.74 6.56L32.74 6.56L32.74 6.56Q33.48 6.26 34.34 6.26L34.34 6.26L34.34 6.26Q34.80 6.26 35.19 6.33L35.19 6.33L35.19 6.33Q35.58 6.41 35.89 6.48L35.89 6.48Z"></path></g><!----><!----></svg>